#N canvas 18 25 1422 847 12;
#N canvas 523 110 841 453 gemwin 0;
#X obj 132 231 gemwin;
#X obj 67 113 outlet;
#X obj 67 10 inlet;
#X obj 67 41 route create;
#X msg 67 70 set destroy;
#X msg 175 69 set create;
#X msg 217 111 destroy;
#X msg 132 112 create \, 1;
#X obj 314 42 gemhead;
#X obj 314 66 world_light;
#X msg 226 154 lighting 1;
#X obj 226 133 loadbang;
#X obj 490 242 tgl 15 0 empty empty empty 17 7 0 10 #fcfcfc #000000 #000000 0 1;
#X text 513 241 change background color;
#X msg 490 260 color \$1 \$1 \$1 \$1;
#X msg 431 209 dimen 780 580;
#X obj 431 167 loadbang;
#X msg 177 23 create;
#X obj 18 98 print;
#X connect 2 0 3 0;
#X connect 3 0 4 0;
#X connect 3 0 7 0;
#X connect 3 0 18 0;
#X connect 3 1 5 0;
#X connect 3 1 6 0;
#X connect 4 0 1 0;
#X connect 5 0 1 0;
#X connect 6 0 0 0;
#X connect 7 0 0 0;
#X connect 8 0 9 0;
#X connect 10 0 0 0;
#X connect 11 0 10 0;
#X connect 12 0 14 0;
#X connect 14 0 0 0;
#X connect 15 0 0 0;
#X connect 16 0 15 0;
#X connect 17 0 3 0;
#X restore 286 43 pd gemwin;
#X msg 286 22 create;
#X text 342 20 visualiza topologia da rede;
#N canvas 224 25 1216 775 plotDataset 0;
#X obj 71 196 t f b;
#X obj 71 223 until;
#X obj 100 264 + 1;
#X msg 86 243 0;
#X obj 71 264 f;
#X obj 71 294 t f b f f f;
#X obj 404 -15 table plotDataY;
#X obj 284 65 array size plotDataY;
#X floatatom 284 89 5 0 0 0 - - - 0;
#X floatatom 282 142 5 0 0 0 - - - 0;
#X obj 71 173 f;
#X obj 283 37 t b f;
#X obj 283 115 array size plotDataX;
#X obj 404 10 table plotDataX;
#X obj 22 45 t a a;
#X obj 22 66 route gem_state;
#X obj 22 87 route float;
#X obj 21 128 t b b;
#X obj 22 22 gemhead;
#N canvas 386 177 804 401 coord 0;
#X obj 387 189 outlet;
#X obj 503 195 outlet;
#X obj 44 9 inlet;
#X obj 43 277 tabread plotDataX;
#X obj 94 227 tabread plotDataY;
#X obj 44 30 t f f;
#X connect 2 0 5 0;
#X connect 3 0 1 0;
#X connect 4 0 0 0;
#X connect 5 0 3 0;
#X connect 5 1 4 0;
#X restore 159 396 pd coord;
#X obj 283 -76 loadbang;
#X text 706 405 X;
#X text 851 445 Y;
#X obj 660 370 unpack f f, f 16;
#X msg 656 179 rewind;
#X obj 661 333 textfile;
#X msg 720 68 bang;
#X obj 559 -45 loadbang;
#X obj 689 31 t f b;
#X floatatom 652 97 5 0 0 0 - - - 0;
#X obj 688 -47 until;
#X obj 688 -9 f;
#X obj 726 -16 + 1;
#X obj 781 -20 sel 0;
#X obj 283 -53 t b b;
#X obj 249 -65 bng 19 250 50 0 empty empty empty 0 -10 0 12 #fcfcfc #000000 #000000;
#X obj 21 0 tgl 19 0 empty empty empty 0 -10 0 12 #fcfcfc #000000 #000000 0 1;
#X obj 726 10 mod 100;
#X obj 795 541 tabwrite plotDataY;
#X obj 658 542 tabwrite plotDataX;
#X obj 790 4 r datasize;
#X obj 283 -12 r datasize;
#X obj 21 -22 r plot-data;
#X obj 86 374 gemlist;
#X obj 86 396 separator;
#X obj 86 438 translateXYZ;
#X floatatom 790 28 5 0 0 0 - - - 0;
#X floatatom 592 397 5 0 0 0 - - - 0;
#X floatatom 801 398 5 0 0 0 - - - 0;
#X obj 659 426 cyclone/scale 0 1 -4.9 4.9;
#X obj 774 465 cyclone/scale 0 1 -3.9 3.9;
#X obj 152 -35 loadbang;
#X msg 152 -10 1;
#X obj 86 462 square 0.07;
#X msg 767 186 read data_test_bi.txt;
#X msg 959 190 read data_test_tri.txt;
#X obj 559 -22 t b b b;
#X obj 534 114 bng 19 250 50 0 empty empty empty 0 -10 0 12 #fcfcfc #000000 #000000;
#X connect 0 0 1 0;
#X connect 0 1 3 0;
#X connect 1 0 4 0;
#X connect 2 0 4 1;
#X connect 3 0 4 1;
#X connect 4 0 2 0;
#X connect 4 0 5 0;
#X connect 5 1 43 0;
#X connect 5 3 19 0;
#X connect 7 0 8 0;
#X connect 10 0 0 0;
#X connect 11 0 7 0;
#X connect 11 0 12 0;
#X connect 11 1 7 0;
#X connect 11 1 12 0;
#X connect 12 0 9 0;
#X connect 14 0 15 0;
#X connect 14 1 43 1;
#X connect 15 0 16 0;
#X connect 16 1 17 0;
#X connect 17 0 10 0;
#X connect 18 0 14 0;
#X connect 19 0 45 1;
#X connect 19 1 45 2;
#X connect 20 0 34 0;
#X connect 23 0 47 0;
#X connect 23 0 49 0;
#X connect 23 1 48 0;
#X connect 23 1 50 0;
#X connect 24 0 25 0;
#X connect 25 0 23 0;
#X connect 25 1 24 0;
#X connect 26 0 25 0;
#X connect 27 0 56 0;
#X connect 28 0 29 0;
#X connect 28 0 39 1;
#X connect 28 0 38 1;
#X connect 28 1 26 0;
#X connect 30 0 31 0;
#X connect 31 0 32 0;
#X connect 31 0 28 0;
#X connect 32 0 37 0;
#X connect 33 0 30 1;
#X connect 35 0 34 0;
#X connect 36 0 18 0;
#X connect 37 0 31 1;
#X connect 37 0 33 0;
#X connect 40 0 37 1;
#X connect 40 0 46 0;
#X connect 41 0 11 0;
#X connect 41 0 10 1;
#X connect 42 0 36 0;
#X connect 43 0 44 0;
#X connect 44 0 45 0;
#X connect 45 0 53 0;
#X connect 49 0 39 0;
#X connect 50 0 38 0;
#X connect 51 0 52 0;
#X connect 52 0 36 0;
#X connect 54 0 25 0;
#X connect 55 0 25 0;
#X connect 56 0 30 0;
#X connect 56 1 24 0;
#X connect 56 2 54 0;
#X connect 57 0 56 0;
#X restore 286 67 pd plotDataset;
#X obj 133 618 som, f 31;
#X floatatom 594 195 5 0 0 0 - - - 0;
#X msg 594 216 learning \$1;
#X floatatom 595 250 5 0 0 0 - - - 0;
#X msg 595 271 topology \$1;
#X floatatom 595 309 5 0 0 0 - - - 0;
#X floatatom 596 370 5 0 0 0 - - - 0;
#X msg 595 330 datasize \$1;
#X floatatom 595 456 5 0 0 0 - - - 0;
#X obj 347 642 bng 16 250 50 0 empty empty empty 0 -8 0 10 #fcfcfc #000000 #000000;
#N canvas 162 49 825 823 dataset 0;
#X msg 242 213 rewind;
#X obj 245 360 textfile;
#X msg 272 328 bang;
#X obj 241 121 loadbang;
#X obj 245 389 outlet;
#X obj 538 220 until;
#X obj 538 258 f;
#X obj 586 274 + 1;
#X obj 653 230 sel 0;
#X obj 538 304 t f b;
#X obj 538 191 t b b;
#X obj 538 165 inlet;
#X obj 241 144 t b b;
#X obj 586 294 mod 40;
#X obj 538 332 sel 39;
#X msg 301 167 read data_test_bi.txt;
#X msg 304 217 read data_test_tri.txt;
#X connect 0 0 1 0;
#X connect 1 0 4 0;
#X connect 2 0 1 0;
#X connect 3 0 12 0;
#X connect 5 0 6 0;
#X connect 6 0 7 0;
#X connect 6 0 9 0;
#X connect 7 0 13 0;
#X connect 8 0 5 1;
#X connect 9 0 14 0;
#X connect 9 1 2 0;
#X connect 10 0 5 0;
#X connect 11 0 10 0;
#X connect 12 0 0 0;
#X connect 12 1 16 0;
#X connect 13 0 6 1;
#X connect 13 0 8 0;
#X connect 14 0 0 0;
#X connect 15 0 1 0;
#X connect 16 0 1 0;
#X restore 132 69 pd dataset;
#X obj 132 51 bng 15 250 50 0 empty empty empty 17 7 0 10 #fcfcfc #000000 #000000;
#X obj 240 663 route learning epoch radius mse, f 44;
#X obj 865 121 s datasize;
#X obj 946 120 s netsize;
#X obj 865 63 loadbang;
#N canvas 111 100 1056 737 plot_map 0;
#X floatatom 445 311 5 0 1 0 - - - 0;
#X floatatom 584 310 5 0 1 0 - - - 0;
#N canvas 189 25 339 248 pak 0;
#X obj 83 41 t b f;
#X obj 141 41 t b f;
#X obj 38 19 inlet;
#X obj 47 87 pack f f f;
#X obj 47 113 outlet;
#X obj 83 19 inlet;
#X obj 141 16 inlet;
#X connect 0 0 3 0;
#X connect 0 1 3 1;
#X connect 1 0 3 0;
#X connect 1 1 3 2;
#X connect 2 0 3 0;
#X connect 3 0 4 0;
#X connect 5 0 0 0;
#X connect 6 0 1 0;
#X restore 446 332 pd pak f f f;
#X f 40;
#X floatatom 723 307 5 0 1 0 - - - 0;
#X obj 92 513 color, f 51;
#X obj 92 480 translateXYZ 0 0 0, f 50;
#X msg 446 354 \$1 \$2 \$3;
#X obj 445 288 cyclone/scale -4.9 4.9 0 1;
#X obj 723 284 cyclone/scale -3.9 3.9 0 1;
#X obj 227 201 table plotNeuronX;
#X obj 227 223 table plotNeuronY;
#X obj 74 255 t f b;
#X obj 74 282 until;
#X obj 103 333 + 1;
#X msg 105 306 0;
#X obj 74 333 f;
#X obj 74 356 t f b f f f;
#X obj 74 232 f;
#X obj 166 219 t b f;
#X obj 25 114 t a a, f 19;
#X obj 25 135 route gem_state;
#X obj 25 156 route float;
#X obj 25 185 t b b;
#X obj 25 91 gemhead;
#X obj 24 69 tgl 19 0 empty empty empty 0 -10 0 12 #fcfcfc #000000 #000000 0 1;
#X obj 136 30 loadbang;
#X msg 136 55 1;
#X obj 24 47 r plot-neuron;
#X obj 92 389 gemlist, f 10;
#X obj 184 247 array size plotNeuronY;
#X obj 184 272 array size plotNeuronX;
#X obj 92 413 separator;
#X obj 166 174 r netsize;
#X obj 446 230 tabwrite plotNeuronX;
#X obj 723 222 tabwrite plotNeuronY;
#N canvas 386 177 804 401 coord 0;
#X obj 181 104 outlet;
#X obj 45 154 outlet;
#X obj 44 9 inlet;
#X obj 44 30 t f f, f 20;
#X obj 181 82 tabread plotNeuronY;
#X obj 45 133 tabread plotNeuronX;
#X connect 2 0 3 0;
#X connect 3 0 5 0;
#X connect 3 1 4 0;
#X connect 4 0 0 0;
#X connect 5 0 1 0;
#X restore 207 454 pd coord;
#X f 17;
#X obj 445 202 cyclone/scale 0 1 -4.9 4.9;
#X obj 722 193 cyclone/scale 0 1 -3.9 3.9;
#X obj 412 90 t b f;
#N canvas 475 175 854 613 list_iter 0;
#X obj 127 184 until;
#X obj 140 267 list store;
#X obj 161 151 t b b l;
#X obj 127 209 f;
#X obj 165 210 + 1;
#X msg 184 184 0, f 2;
#X msg 127 240 get \$1 1;
#X obj 255 184 until;
#X obj 268 267 list store;
#X obj 289 151 t b b l;
#X obj 255 209 f;
#X obj 293 210 + 1;
#X msg 312 184 0, f 2;
#X msg 255 240 get \$1 1;
#X obj 161 115 route x y, f 37;
#X obj 161 80 inlet;
#X obj 140 293 outlet;
#X obj 268 293 outlet;
#X connect 0 0 3 0;
#X connect 1 0 16 0;
#X connect 1 1 0 1;
#X connect 2 0 0 0;
#X connect 2 1 5 0;
#X connect 2 2 1 1;
#X connect 3 0 4 0;
#X connect 3 0 6 0;
#X connect 4 0 3 1;
#X connect 5 0 3 1;
#X connect 6 0 1 0;
#X connect 7 0 10 0;
#X connect 8 0 17 0;
#X connect 8 1 7 1;
#X connect 9 0 7 0;
#X connect 9 1 12 0;
#X connect 9 2 8 1;
#X connect 10 0 11 0;
#X connect 10 0 13 0;
#X connect 11 0 10 1;
#X connect 12 0 10 1;
#X connect 13 0 8 0;
#X connect 14 0 2 0;
#X connect 14 1 9 0;
#X connect 15 0 14 0;
#X restore 412 66 pd list_iter;
#X f 40;
#X obj 412 43 inlet;
#X obj 412 161 t f b;
#X obj 412 121 f;
#X obj 450 114 + 1;
#X floatatom 506 138 5 0 0 0 - - - 0;
#X obj 506 114 r netsize;
#X obj 450 140 mod 50;
#X obj 689 89 t b f;
#X obj 689 160 t f b;
#X obj 689 120 f;
#X obj 727 113 + 1;
#X floatatom 783 137 5 0 0 0 - - - 0;
#X obj 783 113 r netsize;
#X obj 727 139 mod 50;
#X obj 92 538 square 0.07;
#X connect 0 0 2 0;
#X connect 1 0 2 1;
#X connect 2 0 6 0;
#X connect 3 0 2 2;
#X connect 4 0 54 0;
#X connect 5 0 4 0;
#X connect 6 0 4 1;
#X connect 7 0 0 0;
#X connect 8 0 3 0;
#X connect 11 0 12 0;
#X connect 11 1 14 0;
#X connect 12 0 15 0;
#X connect 13 0 15 1;
#X connect 14 0 15 1;
#X connect 15 0 13 0;
#X connect 15 0 16 0;
#X connect 16 1 28 0;
#X connect 16 3 35 0;
#X connect 17 0 11 0;
#X connect 18 0 29 0;
#X connect 18 0 30 0;
#X connect 18 1 29 0;
#X connect 18 1 30 0;
#X connect 19 0 20 0;
#X connect 19 1 28 1;
#X connect 20 0 21 0;
#X connect 21 1 22 0;
#X connect 22 0 17 0;
#X connect 23 0 19 0;
#X connect 24 0 23 0;
#X connect 25 0 26 0;
#X connect 26 0 24 0;
#X connect 27 0 24 0;
#X connect 28 0 31 0;
#X connect 31 0 5 0;
#X connect 32 0 18 0;
#X connect 32 0 17 1;
#X connect 35 0 5 1;
#X connect 35 1 5 2;
#X connect 36 0 33 0;
#X connect 36 0 7 0;
#X connect 37 0 34 0;
#X connect 37 0 8 0;
#X connect 38 0 42 0;
#X connect 38 1 36 0;
#X connect 39 0 38 0;
#X connect 39 1 47 0;
#X connect 40 0 39 0;
#X connect 41 0 33 1;
#X connect 42 0 43 0;
#X connect 42 0 41 0;
#X connect 43 0 46 0;
#X connect 45 0 44 0;
#X connect 45 0 46 1;
#X connect 46 0 42 1;
#X connect 47 0 49 0;
#X connect 47 1 37 0;
#X connect 48 0 34 1;
#X connect 49 0 50 0;
#X connect 49 0 48 0;
#X connect 50 0 53 0;
#X connect 52 0 51 0;
#X connect 52 0 53 1;
#X connect 53 0 49 1;
#X restore 133 643 pd plot_map;
#X f 13;
#X obj 241 768 nbx 5 17 -1e+37 1e+37 0 0 empty empty learning\ rate 65 10 0 12 #fcfcfc #000000 #000000 0 256;
#X obj 317 740 nbx 5 17 -1e+37 1e+37 0 0 empty empty epoch 65 10 0 12 #fcfcfc #000000 #000000 0 256;
#X obj 393 718 nbx 5 17 -1e+37 1e+37 0 0 empty empty radius 65 10 0 12 #fcfcfc #000000 #000000 0 256;
#X obj 468 692 nbx 5 17 -1e+37 1e+37 0 0 empty empty mse 65 10 0 12 #fcfcfc #000000 #000000 0 256;
#X msg 865 99 40;
#N canvas 239 49 909 823 dataset 0;
#X msg 115 168 rewind;
#X obj 122 421 textfile;
#X msg 125 207 bang;
#X msg 176 380 print;
#X obj 633 192 + 1;
#X floatatom 538 225 5 0 0 0 - - - 0;
#X msg 612 120 0;
#X obj 121 453 outlet;
#X obj 538 144 float, f 11;
#X obj 537 167 t f f, f 11;
#X msg 562 560 stop;
#X obj 532 407 + 1;
#X floatatom 440 433 5 0 0 0 - - - 0;
#X msg 515 363 1;
#X obj 441 385 float, f 11;
#X obj 440 408 t f f, f 11;
#X text 484 434 <-- contagem de iterações da rede;
#X obj 442 574 bng 19 250 50 0 empty empty empty 0 -10 0 12 #fcfcfc #000000 #000000;
#X obj 661 484 inlet;
#X obj 661 509 bng 19 250 50 0 empty empty empty 0 -10 0 12 #fcfcfc #000000 #000000;
#X text 593 272 <-- quantidade de elementos do dataset;
#X obj 538 315 t b b b b, f 26;
#X obj 536 51 bng 19 250 50 0 empty empty empty 0 -10 0 12 #fcfcfc #000000 #000000;
#X obj 536 28 inlet;
#X obj 442 550 sel 100;
#X obj 488 524 r iter_max;
#X obj 551 270 sel 100;
#X obj 569 483 r restart;
#X obj 569 508 t b b b b;
#X obj 597 245 r datasize;
#X obj 154 73 loadbang;
#X msg 145 298 read data_test_bi.txt;
#X msg 157 345 read data_test_tri.txt;
#X obj 154 96 t b b b;
#X obj 732 488 bng 19 250 50 0 empty empty empty 0 -10 0 12 #fcfcfc #000000 #000000;
#X obj 536 78 metro 70;
#X connect 0 0 1 0;
#X connect 1 0 7 0;
#X connect 2 0 1 0;
#X connect 3 0 1 0;
#X connect 4 0 8 1;
#X connect 5 0 26 0;
#X connect 6 0 8 1;
#X connect 8 0 9 0;
#X connect 9 0 5 0;
#X connect 9 1 4 0;
#X connect 10 0 35 0;
#X connect 11 0 14 1;
#X connect 12 0 24 0;
#X connect 13 0 14 1;
#X connect 14 0 15 0;
#X connect 15 0 12 0;
#X connect 15 1 11 0;
#X connect 18 0 19 0;
#X connect 19 0 10 0;
#X connect 21 1 0 0;
#X connect 21 2 6 0;
#X connect 21 3 14 0;
#X connect 22 0 14 0;
#X connect 22 0 35 0;
#X connect 23 0 22 0;
#X connect 24 0 17 0;
#X connect 24 0 10 0;
#X connect 25 0 24 1;
#X connect 26 0 21 0;
#X connect 26 1 2 0;
#X connect 27 0 28 0;
#X connect 28 0 0 0;
#X connect 28 1 13 0;
#X connect 28 2 6 0;
#X connect 28 3 10 0;
#X connect 29 0 26 1;
#X connect 30 0 33 0;
#X connect 31 0 1 0;
#X connect 32 0 1 0;
#X connect 33 0 13 0;
#X connect 33 1 0 0;
#X connect 33 2 31 0;
#X connect 34 0 28 0;
#X connect 35 0 8 0;
#X restore 982 353 pd dataset;
#X obj 982 335 bng 15 250 50 0 empty empty start -32 7 0 10 #fcfcfc #000000 #000000;
#X obj 1050 335 bng 15 250 50 0 empty empty stop 17 7 0 10 #fcfcfc #000000 #000000;
#X msg 216 251 print;
#X msg 203 216 reset;
#X obj 238 352 bng 19 250 50 0 empty empty empty 0 -10 0 12 #fcfcfc #000000 #000000;
#X msg 223 288 write file_test.txt;
#X msg 594 170 0.6;
#X msg 185 181 random;
#X msg 170 152 linear;
#X msg 595 434 0.27;
#X msg 546 113 netsize 35 2;
#X msg 946 98 35;
#X obj 716 35 bng 19 250 50 0 empty empty empty 0 -10 0 12 #fcfcfc #000000 #000000;
#X obj 716 59 s restart;
#X msg 896 166 500;
#X obj 286 106 until;
#X obj 286 144 f;
#X obj 334 160 + 1;
#X obj 401 116 sel 0;
#X obj 286 190 t f b;
#X obj 334 180 mod 40;
#X obj 43 54 until;
#X msg 42 29 100;
#X msg 595 478 nradius \$1;
#X msg 596 391 epochs \$1;
#X connect 0 0 1 0;
#X connect 1 0 0 0;
#X connect 4 0 20 0;
#X connect 4 1 16 0;
#X connect 4 2 13 0;
#X connect 5 0 6 0;
#X connect 6 0 4 0;
#X connect 7 0 8 0;
#X connect 8 0 4 0;
#X connect 9 0 11 0;
#X connect 10 0 51 0;
#X connect 11 0 4 0;
#X connect 12 0 50 0;
#X connect 14 0 4 0;
#X connect 15 0 14 0;
#X connect 16 0 21 0;
#X connect 16 1 22 0;
#X connect 16 2 23 0;
#X connect 16 3 24 0;
#X connect 19 0 25 0;
#X connect 19 0 38 0;
#X connect 19 0 33 0;
#X connect 19 0 36 0;
#X connect 19 0 37 0;
#X connect 19 0 41 0;
#X connect 25 0 17 0;
#X connect 25 0 9 0;
#X connect 27 0 26 0;
#X connect 28 0 26 1;
#X connect 29 0 4 0;
#X connect 30 0 4 0;
#X connect 31 0 4 0;
#X connect 32 0 4 0;
#X connect 33 0 5 0;
#X connect 34 0 4 0;
#X connect 35 0 4 0;
#X connect 36 0 12 0;
#X connect 37 0 4 0;
#X connect 38 0 18 0;
#X connect 39 0 40 0;
#X connect 41 0 10 0;
#X connect 42 0 43 0;
#X connect 43 0 44 0;
#X connect 43 0 46 0;
#X connect 44 0 47 0;
#X connect 45 0 42 1;
#X connect 47 0 43 1;
#X connect 47 0 45 0;
#X connect 48 0 15 0;
#X connect 49 0 48 0;
#X connect 50 0 4 0;
#X connect 51 0 4 0;
